<svg width="56" height="85" viewBox="0 0 56 85" fill="none" xmlns="http://www.w3.org/2000/svg">
<g id="Agile Icons Container">
<g id="Vector">
<path d="M53.4207 0.122314H31.9935C31.9935 2.6967 33.0126 5.16565 34.8265 6.98602C36.6405 8.80639 39.1008 9.82906 41.6661 9.82906H45.6132V13.6533C45.6166 19.0093 49.9424 23.3504 55.2796 23.3538V1.9878C55.2796 0.957521 54.4474 0.122314 53.4207 0.122314Z" fill="#2684FF"/>
<path d="M42.8184 10.8363H21.3912C21.3946 16.1923 25.7204 20.5333 31.0576 20.5368H35.0047V24.3735C35.0116 29.7295 39.3402 34.0678 44.6774 34.0678V12.7017C44.6774 11.6715 43.8451 10.8363 42.8184 10.8363Z" fill="url(#paint0_linear_35_1391)"/>
<path d="M32.2104 21.5442H10.7832C10.7832 26.9051 15.1138 31.251 20.4558 31.251H24.4153V35.0752C24.4187 40.4264 28.737 44.7655 34.0694 44.7758V23.4097C34.0694 22.3794 33.2371 21.5442 32.2104 21.5442Z" fill="url(#paint1_linear_35_1391)"/>
</g>
<path id="Vector_2" d="M39.9643 52.0544V76.0487L30.0982 84.1276L14.8058 78.5603V84.0797L6.14903 72.7675L31.3808 74.7408V53.1341L39.9643 52.0544ZM31.5528 53.2609L17.3964 44.6633V50.3039L4.39569 54.1235L0.5 59.1242V70.4814L6.07574 72.9423V58.3884L31.5528 53.2609Z" fill="url(#paint2_linear_35_1391)"/>
</g>
<defs>
<linearGradient id="paint0_linear_35_1391" x1="4372.81" y1="7.29386" x2="2624.72" y2="1814.29" gradientUnits="userSpaceOnUse">
<stop offset="0.18" stop-color="#0052CC"/>
<stop offset="1" stop-color="#2684FF"/>
</linearGradient>
<linearGradient id="paint1_linear_35_1391" x1="2354.89" y1="32.1153" x2="1303.3" y2="1063.09" gradientUnits="userSpaceOnUse">
<stop offset="0.18" stop-color="#0052CC"/>
<stop offset="1" stop-color="#2684FF"/>
</linearGradient>
<linearGradient id="paint2_linear_35_1391" x1="20.2321" y1="84.0036" x2="20.2321" y2="44.7366" gradientUnits="userSpaceOnUse">
<stop stop-color="#0078D4"/>
<stop offset="0.16" stop-color="#1380DA"/>
<stop offset="0.53" stop-color="#3C91E5"/>
<stop offset="0.82" stop-color="#559CEC"/>
<stop offset="1" stop-color="#5EA0EF"/>
</linearGradient>
</defs>
</svg>
