<svg width="71" height="72" viewBox="0 0 71 72" fill="none" xmlns="http://www.w3.org/2000/svg">
<g id="figma_svgrepo.com" clip-path="url(#clip0_35_1405)">
<g id="Figma Icons Container">
<path id="Vector" d="M47.3333 47.4584C53.8687 47.4584 59.1667 42.1604 59.1667 35.6251C59.1667 29.0897 53.8687 23.7917 47.3333 23.7917C40.798 23.7917 35.5 29.0897 35.5 35.6251C35.5 42.1604 40.798 47.4584 47.3333 47.4584Z" fill="#19BCFE"/>
<path id="Vector_2" fill-rule="evenodd" clip-rule="evenodd" d="M23.6666 71.1249C30.202 71.1249 35.4999 65.827 35.4999 59.2916C35.4999 57.5076 35.4999 53.5631 35.4999 47.4583C30.1839 47.4583 26.2395 47.4583 23.6666 47.4583C17.1312 47.4583 11.8333 52.7562 11.8333 59.2916C11.8333 65.827 17.1312 71.1249 23.6666 71.1249Z" fill="#09CF83"/>
<path id="Vector_3" fill-rule="evenodd" clip-rule="evenodd" d="M23.6666 47.4584C25.845 47.4584 29.7895 47.4584 35.4999 47.4584V23.7917C29.7895 23.7917 25.845 23.7917 23.6666 23.7917C17.1312 23.7917 11.8333 29.0897 11.8333 35.6251C11.8333 42.1604 17.1312 47.4584 23.6666 47.4584Z" fill="#A259FF"/>
<path id="Vector_4" fill-rule="evenodd" clip-rule="evenodd" d="M23.6666 23.7917C25.845 23.7917 29.7895 23.7917 35.4999 23.7917V0.125C29.7895 0.125 25.845 0.125 23.6666 0.125C17.1312 0.125 11.8333 5.42296 11.8333 11.9583C11.8333 18.4937 17.1312 23.7917 23.6666 23.7917Z" fill="#F24E1E"/>
<path id="Vector_5" fill-rule="evenodd" clip-rule="evenodd" d="M47.3333 23.7917H35.5V0.125H47.3333C53.8687 0.125 59.1667 5.42296 59.1667 11.9583C59.1667 18.4937 53.8687 23.7917 47.3333 23.7917Z" fill="#FF7262"/>
</g>
</g>
<defs>
<clipPath id="clip0_35_1405">
<rect width="71" height="71" fill="white" transform="translate(0 0.125)"/>
</clipPath>
</defs>
</svg>
